<?xml version="1.0" encoding="UTF-8" standalone="no"?>
<!-- Created with Inkscape (http://www.inkscape.org/) -->

<svg
   xmlns:dc="http://purl.org/dc/elements/1.1/"
   xmlns:cc="http://creativecommons.org/ns#"
   xmlns:rdf="http://www.w3.org/1999/02/22-rdf-syntax-ns#"
   xmlns:svg="http://www.w3.org/2000/svg"
   xmlns="http://www.w3.org/2000/svg"
   xmlns:sodipodi="http://sodipodi.sourceforge.net/DTD/sodipodi-0.dtd"
   xmlns:inkscape="http://www.inkscape.org/namespaces/inkscape"
   width="468.26025"
   height="468.59378"
   id="svg3339"
   version="1.1"
   inkscape:version="0.48.4 r9939"
   sodipodi:docname="New document 5">
  <defs
     id="defs3341" />
  <sodipodi:namedview
     id="base"
     pagecolor="#ffffff"
     bordercolor="#666666"
     borderopacity="1.0"
     inkscape:pageopacity="0.0"
     inkscape:pageshadow="2"
     inkscape:zoom="0.35"
     inkscape:cx="234.13013"
     inkscape:cy="234.29689"
     inkscape:document-units="px"
     inkscape:current-layer="layer1"
     showgrid="false"
     fit-margin-top="0"
     fit-margin-left="0"
     fit-margin-right="0"
     fit-margin-bottom="0"
     inkscape:window-width="463"
     inkscape:window-height="483"
     inkscape:window-x="2508"
     inkscape:window-y="549"
     inkscape:window-maximized="0" />
  <metadata
     id="metadata3344">
    <rdf:RDF>
      <cc:Work
         rdf:about="">
        <dc:format>image/svg+xml</dc:format>
        <dc:type
           rdf:resource="http://purl.org/dc/dcmitype/StillImage" />
        <dc:title></dc:title>
      </cc:Work>
    </rdf:RDF>
  </metadata>
  <g
     inkscape:label="Layer 1"
     inkscape:groupmode="layer"
     id="layer1"
     transform="translate(-140.86987,-298.06529)">
    <path
       style="fill:#000000;fill-opacity:1"
       d="m 562.52612,298.06529 c -5.17566,0 -10.34732,2.00357 -14.3125,5.96875 l -5.15625,5.125 -6.3125,6.3125 -14.3125,14.3125 14.3125,14.3125 26.34375,26.34375 14.3125,14.3125 14.3125,-14.3125 6.3125,-6.3125 5.15625,-5.125 c 7.9304,-7.93037 7.9303,-20.72591 0,-28.65625 l -26.34375,-26.3125 c -3.96518,-3.96517 -9.13684,-5.96875 -14.3125,-5.96875 z m -45.46875,37.125 -229.5,229.5 c 11.7526,4.51609 22.77298,11.49172 32.25,20.96875 10.14976,10.14976 17.44673,22.08707 21.90625,34.78125 l 230.3125,-230.3125 -54.96875,-54.9375 z m 1.125,12.5625 10.90625,10.90625 -213.5625,213.5625 c -4.195,-3.26186 -8.5766,-6.15538 -13.125,-8.65625 l 215.78125,-215.8125 z m -377.3125,62.875 0,356.03128 356.03125,0 0,-280.00003 -19.78125,19.78125 0,240.43748 -316.46875,0 0,-316.46873 244.625,0 19.78125,-19.78125 -284.1875,0 z m 132.4375,191.96875 -15.625,46.93753 45.96875,-15.34379 c -2.50142,-7.26722 -6.69962,-14.07461 -12.5,-19.87499 -5.2577,-5.25771 -11.33605,-9.1716 -17.84375,-11.71875 z"
       id="rect3109"
       inkscape:connector-curvature="0" />
  </g>
</svg>
