<?xml version="1.0" encoding="UTF-8" standalone="no"?>
<!-- Created with Inkscape (http://www.inkscape.org/) -->

<svg
   xmlns:dc="http://purl.org/dc/elements/1.1/"
   xmlns:cc="http://creativecommons.org/ns#"
   xmlns:rdf="http://www.w3.org/1999/02/22-rdf-syntax-ns#"
   xmlns:svg="http://www.w3.org/2000/svg"
   xmlns="http://www.w3.org/2000/svg"
   xmlns:sodipodi="http://sodipodi.sourceforge.net/DTD/sodipodi-0.dtd"
   xmlns:inkscape="http://www.inkscape.org/namespaces/inkscape"
   width="1726.4089"
   height="2350.1094"
   id="svg2"
   version="1.1"
   inkscape:version="0.48.4 r9939"
   sodipodi:docname="New document 1">
  <defs
     id="defs4">
    <inkscape:perspective
       sodipodi:type="inkscape:persp3d"
       inkscape:vp_x="-125.71429 : 486.18109 : 1"
       inkscape:vp_y="0 : 1000 : 0"
       inkscape:vp_z="744.09448 : 526.18109 : 1"
       inkscape:persp3d-origin="372.04724 : 350.78739 : 1"
       id="perspective3022" />
  </defs>
  <sodipodi:namedview
     id="base"
     pagecolor="#ffffff"
     bordercolor="#666666"
     borderopacity="1.0"
     inkscape:pageopacity="0.0"
     inkscape:pageshadow="2"
     inkscape:zoom="0.25"
     inkscape:cx="852.88869"
     inkscape:cy="1232.8703"
     inkscape:document-units="px"
     inkscape:current-layer="layer1"
     showgrid="false"
     fit-margin-top="0"
     fit-margin-left="0"
     fit-margin-right="0"
     fit-margin-bottom="0"
     inkscape:window-width="2560"
     inkscape:window-height="1418"
     inkscape:window-x="1672"
     inkscape:window-y="-8"
     inkscape:window-maximized="1" />
  <metadata
     id="metadata7">
    <rdf:RDF>
      <cc:Work
         rdf:about="">
        <dc:format>image/svg+xml</dc:format>
        <dc:type
           rdf:resource="http://purl.org/dc/dcmitype/StillImage" />
        <dc:title></dc:title>
      </cc:Work>
    </rdf:RDF>
  </metadata>
  <g
     inkscape:label="Layer 1"
     inkscape:groupmode="layer"
     id="layer1"
     transform="translate(360.89191,615.62747)">
    <path
       style="fill:#000000;fill-opacity:1"
       d="m -331.0064,-349.0267 c 11.7526,4.516 22.7633,11.5154 32.2403,20.9925 10.1498,10.1497 17.4599,22.0762 21.9194,34.7704 L -46.542698,-523.56778 -101.504,-578.5291 -331.0064,-349.0267 z m 234.888302,-234.88831 14.3165,14.3165 26.3283,26.32832 14.3165,14.3165 14.3165,-14.3165 6.300298,-6.30026 5.1479,-5.14792 c 7.9304,-7.93037 7.9304,-20.70266 0,-28.633 l -26.328298,-26.32833 c -7.9304,-7.93035 -20.7027,-7.93036 -28.633,0 l -5.1479,5.14793 -6.3003,6.30026 -14.3165,14.3165 z M -316.1638,-350.1415 -100.3642,-565.9411 -89.479698,-555.05656 -303.0372,-341.499 c -4.195,-3.2619 -8.5782,-6.1416 -13.1266,-8.6425 z m -29.0839,39.0291 -15.6442,46.9325 45.9681,-15.331 c -2.5014,-7.2673 -6.6749,-14.0899 -12.4753,-19.8903 -5.2577,-5.2577 -11.3409,-9.1641 -17.8486,-11.7112 z"
       id="rect2985"
       inkscape:connector-curvature="0" />
    <path
       style="fill:#000000;fill-opacity:1"
       d="m 586.11634,-582.91881 -280.8168,162.13829 -37.1171,138.55369 182.9751,44.37566 283.679,-163.80981 37.14,-138.5537 z m -148.1478,98.82627 166.5346,40.55175 -130.9746,75.60805 -31.0263,115.83923 -162.1955,-38.18401 34.8845,-122.92388 z m 168.2519,52.87069 -28.6907,107.06942 -122.8002,70.91403 28.6908,-107.09232 z"
       id="rect3040"
       inkscape:connector-curvature="0"
       sodipodi:nodetypes="ccccccccccccccccccc" />
    <path
       style="fill:#000000;fill-opacity:1"
       d="m 60.764293,334.37253 c -5.1756,0 -10.3473,2.00357 -14.312498,5.96875 l -5.1562,5.125 -6.3125,6.3125 -14.3125,14.3125 14.3125,14.3125 26.343698,26.34375 14.3125,14.3125 14.3125,-14.3125 6.3125,-6.3125 5.156297,-5.125 c 7.9304,-7.93037 7.9303,-20.72591 0,-28.65625 l -26.343797,-26.3125 c -3.9652,-3.96517 -9.1368,-5.96875 -14.3125,-5.96875 z m -45.468698,37.125 -229.500005,229.49997 c 11.7526,4.5161 22.773,11.4917 32.25,20.9688 10.1497,10.1497 17.4467,22.087 21.9062,34.7812 L 70.264293,426.43503 15.295595,371.49753 z m 1.125,12.5625 10.9062,10.90625 -213.562505,213.56252 c -4.195,-3.2619 -8.5766,-6.1554 -13.125,-8.6563 L 16.420595,384.06003 z m -377.312505,62.875 0,356.03127 356.0312053,0 0,-280.00002 -19.7812003,19.78125 0,240.43747 -316.468805,0 0,-316.46872 244.625005,0 19.7813,-19.78125 -284.187505,0 z m 132.4375,191.96877 -15.625,46.9375 45.9687,-15.3438 c -2.5014,-7.2672 -6.6996,-14.0746 -12.5,-19.875 -5.2577,-5.2577 -11.336,-9.1716 -17.8437,-11.7187 z"
       id="rect3109"
       inkscape:connector-curvature="0" />
    <path
       style="fill:#000000;fill-opacity:1"
       d="m 689.83874,354.37253 c -5.1757,0 -10.3473,2.00357 -14.3125,5.96875 l -5.1563,5.125 -6.2812,6.3125 -14.3125,14.3125 14.3125,14.3125 26.3125,26.34375 14.3125,14.3125 14.3125,-14.3125 6.3125,-6.3125 5.1562,-5.125 c 7.9303,-7.93037 7.9303,-20.72591 0,-28.65625 l -26.3437,-26.3125 c -3.9652,-3.96517 -9.1369,-5.96875 -14.3125,-5.96875 z m -45.4688,37.125 -229.5,229.49997 c 11.7526,4.5161 22.773,11.4918 32.25,20.9688 10.1498,10.1497 17.4467,22.0871 21.9063,34.7812 l 230.3125,-230.31247 -54.9688,-54.9375 z m 1.1563,12.5625 10.875,10.90625 -213.5625,213.56252 c -4.195,-3.2619 -8.5766,-6.1554 -13.125,-8.6563 l 215.8125,-215.81247 z m -200.25,66.0625 c -97.8195,0 -177.0938,79.3055 -177.0938,177.12497 0,97.8195 79.2743,177.125 177.0938,177.125 97.8195,0 177.1562,-79.3055 177.1562,-177.125 0,-30.5097 -7.6937,-59.2196 -21.2812,-84.2812 l -17,17 c 9.8713,20.331 15.4062,43.1615 15.4062,67.2812 0,85.1977 -69.0836,154.2813 -154.2812,154.2813 -85.1976,0 -154.2188,-69.0836 -154.2188,-154.2813 0,-85.1976 69.0212,-154.24997 154.2188,-154.24997 24.1294,0 47.0033,5.53082 67.3437,15.40625 l 16.9688,-16.96875 c -25.068,-13.58739 -53.7984,-21.3125 -84.3125,-21.3125 z m -44.6563,188.78127 -15.625,46.9375 45.9688,-15.3438 c -2.5014,-7.2672 -6.6684,-14.0746 -12.4688,-19.875 -5.2577,-5.2577 -11.3673,-9.1716 -17.875,-11.7187 z"
       id="path3122"
       inkscape:connector-curvature="0" />
    <path
       style="fill:#000000;fill-opacity:1"
       d="m 1318.913,374.37253 c -5.1756,0 -10.3473,2.00357 -14.3125,5.96875 l -5.1562,5.125 -6.2813,6.3125 -14.3437,14.3125 14.3437,14.3125 26.3125,26.34375 14.3125,14.3125 14.3125,-14.3125 6.3125,-6.3125 5.1563,-5.125 c 7.9303,-7.93037 7.9303,-20.72591 0,-28.65625 l -26.3438,-26.3125 c -3.9652,-3.96517 -9.1368,-5.96875 -14.3125,-5.96875 z m -45.4687,37.125 -229.5,229.49997 c 11.7526,4.5161 22.773,11.4917 32.25,20.9688 10.1497,10.1497 17.4467,22.087 21.9062,34.7812 l 230.3125,-230.31247 -54.9687,-54.9375 z m 1.1562,12.5625 10.875,10.90625 -213.5625,213.56252 c -4.195,-3.2619 -8.5766,-6.1554 -13.125,-8.6563 l 215.8125,-215.81247 z m -244.9062,254.84377 -15.625,46.9375 45.9687,-15.3438 c -2.5014,-7.2672 -6.6996,-14.0746 -12.5,-19.875 -5.2577,-5.2577 -11.336,-9.1716 -17.8437,-11.7187 z m 335.8125,38.0625 -468.25003,125.4687 76.7812,0 391.46883,-104.875 0,-20.5937 z"
       id="rect3133"
       inkscape:connector-curvature="0" />
    <path
       style="fill:#000000;fill-opacity:1"
       d="m -103.66317,-170.3179 c -29.9614,0.2157 -76.6862,15.7252 -124.4688,43.3125 -69.5019,40.127 -115.73,91.1122 -106,116 l -0.1875,0.094 1.2813,2.2188005 148.7187,257.5936995 0.375,-0.2188 c 0.3818,1.2227 0.8945,2.3657 1.5313,3.4688 13.8071,23.9146 83.162402,9.7338 154.906202,-31.6875 C 44.23693,179.0422 91.20643,126.0657 77.39933,102.1511 c -0.6368,-1.103 -1.4133,-2.0893 -2.2813,-3.0312 l 0.375,-0.2188 -148.718698,-257.5937 -1.2813,-2.2188 -0.1562,0.094 c -5.2152,-6.522 -15.3812,-9.598 -29.000002,-9.5 z m -6.5625,17.2813 c 11.639802,0 19.953002,2.9189 23.500002,9.0625 11.3504,19.6594 -30.218002,64.9055 -92.843802,101.0625 -62.6257,36.1569005 -122.587,49.5344005 -133.9375,29.875 -11.3504,-19.6595 30.2181,-64.9056 92.8438,-101.0625 43.0552,-24.858 84.83,-38.9449 110.4375,-38.9375 z m -220.7813,173.4062 c -103.2202,178.7826 102.3913,177.3469 0,0 z m -7.7812,33.0313 c 32.2335,55.83 -32.4944,56.282 0,0 z"
       id="rect3146"
       inkscape:connector-curvature="0" />
    <path
       style="fill:#000000;fill-opacity:1"
       d="m -155.2669,897.3125 0,24.1562 24.1563,0 0,-24.1562 -24.1563,0 z m -20.5937,17.75 -185.0313,340.6875 185.0313,0 0,-340.6875 z m 65.3437,0 0,340.6562 185.031302,0 L -110.5169,915.0625 z m -44.75,21.375 0,24.125 24.1563,0 0,-24.125 -24.1563,0 z m 0,39.0937 0,24.1563 24.1563,0 0,-24.1563 -24.1563,0 z m 63.437502,16.6563 131.6562,242.4062 -131.6562,0 0,-242.4062 z m -63.437502,22.4687 0,24.1563 24.1563,0 0,-24.1563 -24.1563,0 z m 0,39.125 0,24.1563 24.1563,0 0,-24.1563 -24.1563,0 z m 0,39.125 0,24.125 24.1563,0 0,-24.125 -24.1563,0 z m 0,39.0938 0,24.1562 24.1563,0 0,-24.1562 -24.1563,0 z m 0,39.125 0,24.1562 24.1563,0 0,-24.1562 -24.1563,0 z m 0,39.125 0,24.125 24.1563,0 0,-24.125 -24.1563,0 z m 0,39.0937 0,24.1563 24.1563,0 0,-24.1563 -24.1563,0 z"
       id="rect3168"
       inkscape:connector-curvature="0" />
    <path
       id="path3247"
       d="m 268.18244,1070.0076 24.1562,0 0,24.1563 -24.1562,0 0,-24.1563 z m 17.75,-20.5937 340.6875,-185.0313 0,185.0313 -340.6875,0 z m 0,65.3437 340.6562,0 0,185.0313 -340.6562,-185.0313 z m 21.375,-44.75 24.125,0 0,24.1563 -24.125,0 0,-24.1563 z m 39.0937,0 24.1563,0 0,24.1563 -24.1563,0 0,-24.1563 z m 16.6563,63.4375 242.4062,131.6562 0,-131.6562 -242.4062,0 z m 22.4687,-63.4375 24.1563,0 0,24.1563 -24.1563,0 0,-24.1563 z m 39.125,0 24.1563,0 0,24.1563 -24.1563,0 0,-24.1563 z m 39.125,0 24.125,0 0,24.1563 -24.125,0 0,-24.1563 z m 39.0938,0 24.1562,0 0,24.1563 -24.1562,0 0,-24.1563 z m 39.125,0 24.1562,0 0,24.1563 -24.1562,0 0,-24.1563 z m 39.125,0 24.125,0 0,24.1563 -24.125,0 0,-24.1563 z m 39.0937,0 24.1563,0 0,24.1563 -24.1563,0 0,-24.1563 z"
       style="fill:#000000;fill-opacity:1"
       inkscape:connector-curvature="0" />
    <path
       style="fill:#000000;fill-opacity:1"
       d="m -175.8606,1345.7212 -185.0313,340.6563 185.0313,0 0,-144.5 -38.875,0 0,-57.7813 38.875,0 0,-138.375 z m 250.375002,0 -185.031302,340.6563 185.031302,0 0,-340.6563 z m -18.6875,77.125 0,242.4063 -131.6563,0 131.6563,-242.4063 z m -184.906302,38.375 0,32.7188 -76.6562,0 0,39.9687 76.6562,0 0,36.9688 47.500002,-27.4375 47.4688,-27.4063 -47.4688,-27.4062 -47.500002,-27.4063 z"
       id="path3249"
       inkscape:connector-curvature="0" />
    <path
       inkscape:connector-curvature="0"
       id="path3264"
       d="m 268.18244,1484.1068 340.6563,-185.0313 0,185.0313 -144.5,0 0,-38.875 -57.7813,0 0,38.875 -138.375,0 z m 0,250.375 340.6563,-185.0313 0,185.0313 -340.6563,0 z m 77.125,-18.6875 242.4063,0 0,-131.6563 -242.4063,131.6563 z m 38.375,-184.9063 32.7188,0 0,-76.6562 39.9687,0 0,76.6562 36.9688,0 -27.4375,47.5 -27.4063,47.4688 -27.4062,-47.4688 -27.4063,-47.5 z"
       style="fill:#000000;fill-opacity:1" />
    <path
       style="fill:#000000;fill-opacity:1"
       d="m 525.41117,-185.78125 c -29.9614,0.21564 -76.6862,15.72523 -124.4688,43.3125 -69.5019,40.12694 -115.73,91.11218 -106,116 l -0.1875,0.0937 1.2813,2.21875 148.7187,257.59375 0.375,-0.21875 c 0.3818,1.2227 0.8945,2.36565 1.5313,3.46875 13.8071,23.9146 83.1624,9.7338 154.9062,-31.6875 71.7439,-41.4214 118.7134,-94.39787 104.9063,-118.3125 -0.6368,-1.10303 -1.4133,-2.08929 -2.2813,-3.03125 l 0.375,-0.21875 -148.7187,-257.59375 -1.2813,-2.21875 -0.1562,0.0937 c -5.2152,-6.52198 -15.3812,-9.59802 -29,-9.5 z m -6.5625,17.28125 c 11.6398,0.003 19.953,2.91891 23.5,9.0625 11.3504,19.65948 -30.218,64.90553 -92.8438,101.0625 -62.6257,36.15697 -122.587,49.5344805 -133.9375,29.875 -11.3504,-19.65948 30.2181,-64.90553 92.8438,-101.0625 43.0552,-24.85792 84.83,-38.94486 110.4375,-38.9375 z m 20.7187,67.46875 53.875,109.7500005 54.75,111.5624995 -70.9687,-102.21875 -65.9688,-93.53125 54.7813,111.5625 53.0312,112.5625 -70.9687,-102.21875 -68.9688,-98.75 53.0625,112.5625 53,112.5625 L 514.22367,70.59375 443.28617,-31.625 494.31737,77.5 547.34867,190.0625 476.37987,87.84375 407.16117,-15.375 l 48.0312,103.90625 53.0313,112.5625 -69.25,-103.21875 -68.0938,-101.4999995 c 11.068,-2.77958 23.0558,-6.7117705 35.625,-11.6875005 l 0.6563,-0.0625 1.125,-0.65625 c 10.3116,-4.14708 21.0118,-8.97954 31.875,-14.5 l 3.125,-1.09375 17.9062,-10.34375 17.9375,-10.34375 2.5,-2.15625 c 10.2047,-6.64338 19.7587,-13.49176 28.5,-20.34375 l 1.125,-0.65625 0.375,-0.5625 c 10.5903,-8.39516 19.9985,-16.80684 27.9375,-25 z m -241.5,105.9375005 c -103.2202,178.7825795 102.3913,177.3468795 0,0 z M 290.28617,37.9375 c 32.2335,55.83003 -32.4944,56.28199 0,0 z"
       id="path3266"
       inkscape:connector-curvature="0" />
  </g>
</svg>
