<?xml version="1.0" encoding="UTF-8" standalone="no"?>
<!-- Created with Inkscape (http://www.inkscape.org/) -->

<svg
   xmlns:dc="http://purl.org/dc/elements/1.1/"
   xmlns:cc="http://creativecommons.org/ns#"
   xmlns:rdf="http://www.w3.org/1999/02/22-rdf-syntax-ns#"
   xmlns:svg="http://www.w3.org/2000/svg"
   xmlns="http://www.w3.org/2000/svg"
   xmlns:sodipodi="http://sodipodi.sourceforge.net/DTD/sodipodi-0.dtd"
   xmlns:inkscape="http://www.inkscape.org/namespaces/inkscape"
   width="435.40625"
   height="376.18753"
   id="svg3339"
   version="1.1"
   inkscape:version="0.48.4 r9939"
   sodipodi:docname="fill_grad.svg">
  <defs
     id="defs3341" />
  <sodipodi:namedview
     id="base"
     pagecolor="#ffffff"
     bordercolor="#666666"
     borderopacity="1.0"
     inkscape:pageopacity="0.0"
     inkscape:pageshadow="2"
     inkscape:zoom="0.35"
     inkscape:cx="534.71139"
     inkscape:cy="308.98913"
     inkscape:document-units="px"
     inkscape:current-layer="layer1"
     showgrid="false"
     fit-margin-top="0"
     fit-margin-left="0"
     fit-margin-right="0"
     fit-margin-bottom="0"
     inkscape:window-width="463"
     inkscape:window-height="483"
     inkscape:window-x="3017"
     inkscape:window-y="520"
     inkscape:window-maximized="0" />
  <metadata
     id="metadata3344">
    <rdf:RDF>
      <cc:Work
         rdf:about="">
        <dc:format>image/svg+xml</dc:format>
        <dc:type
           rdf:resource="http://purl.org/dc/dcmitype/StillImage" />
        <dc:title></dc:title>
      </cc:Work>
    </rdf:RDF>
  </metadata>
  <g
     inkscape:label="Layer 1"
     inkscape:groupmode="layer"
     id="layer1"
     transform="translate(-136.28464,-648.04718)">
    <path
       inkscape:connector-curvature="0"
       style="fill:#000000;fill-opacity:1"
       d="m 341.90964,648.04718 0,24.15625 24.1563,0 0,-24.15625 -24.1563,0 z m -20.5937,17.75 -185.0313,340.68752 185.0313,0 0,-340.68752 z m 65.3437,0 0,340.65622 185.03125,0 -185.03125,-340.65622 z m -44.75,21.375 0,24.125 24.1563,0 0,-24.125 -24.1563,0 z m 0,39.09375 0,24.15625 24.1563,0 0,-24.15625 -24.1563,0 z m 63.4375,16.65625 131.6562,242.40625 -131.6562,0 0,-242.40625 z m -63.4375,22.46875 0,24.15625 24.1563,0 0,-24.15625 -24.1563,0 z m 0,39.125 0,24.15625 24.1563,0 0,-24.15625 -24.1563,0 z m 0,39.125 0,24.125 24.1563,0 0,-24.125 -24.1563,0 z m 0,39.09375 0,24.15625 24.1563,0 0,-24.15625 -24.1563,0 z m 0,39.125 0,24.15625 24.1563,0 0,-24.15625 -24.1563,0 z m 0,39.125 0,24.125 24.1563,0 0,-24.125 -24.1563,0 z m 0,39.09372 0,24.1563 24.1563,0 0,-24.1563 -24.1563,0 z"
       id="rect3168" />
  </g>
</svg>
