<?xml version="1.0" encoding="UTF-8" standalone="no"?>
<!-- Created with Inkscape (http://www.inkscape.org/) -->

<svg
   xmlns:dc="http://purl.org/dc/elements/1.1/"
   xmlns:cc="http://creativecommons.org/ns#"
   xmlns:rdf="http://www.w3.org/1999/02/22-rdf-syntax-ns#"
   xmlns:svg="http://www.w3.org/2000/svg"
   xmlns="http://www.w3.org/2000/svg"
   xmlns:sodipodi="http://sodipodi.sourceforge.net/DTD/sodipodi-0.dtd"
   xmlns:inkscape="http://www.inkscape.org/namespaces/inkscape"
   width="376.1875"
   height="435.40634"
   id="svg3339"
   version="1.1"
   inkscape:version="0.48.4 r9939"
   sodipodi:docname="mirror_vert.svg">
  <defs
     id="defs3341" />
  <sodipodi:namedview
     id="base"
     pagecolor="#ffffff"
     bordercolor="#666666"
     borderopacity="1.0"
     inkscape:pageopacity="0.0"
     inkscape:pageshadow="2"
     inkscape:zoom="0.35"
     inkscape:cx="574.23372"
     inkscape:cy="326.69232"
     inkscape:document-units="px"
     inkscape:current-layer="layer1"
     showgrid="false"
     fit-margin-top="0"
     fit-margin-left="0"
     fit-margin-right="0"
     fit-margin-bottom="0"
     inkscape:window-width="463"
     inkscape:window-height="483"
     inkscape:window-x="3017"
     inkscape:window-y="520"
     inkscape:window-maximized="0" />
  <metadata
     id="metadata3344">
    <rdf:RDF>
      <cc:Work
         rdf:about="">
        <dc:format>image/svg+xml</dc:format>
        <dc:type
           rdf:resource="http://purl.org/dc/dcmitype/StillImage" />
        <dc:title></dc:title>
      </cc:Work>
    </rdf:RDF>
  </metadata>
  <g
     inkscape:label="Layer 1"
     inkscape:groupmode="layer"
     id="layer1"
     transform="translate(-96.762319,-606.53155)">
    <path
       id="path3247"
       d="m 96.762319,812.15655 24.156201,0 0,24.1563 -24.156201,0 0,-24.1563 z m 17.750001,-20.5937 340.6875,-185.0313 0,185.0313 -340.6875,0 z m 0,65.3437 340.6562,0 0,185.03135 -340.6562,-185.03135 z m 21.375,-44.75 24.125,0 0,24.1563 -24.125,0 0,-24.1563 z m 39.0937,0 24.1563,0 0,24.1563 -24.1563,0 0,-24.1563 z m 16.6563,63.4375 242.4062,131.65625 0,-131.65625 -242.4062,0 z m 22.4687,-63.4375 24.1563,0 0,24.1563 -24.1563,0 0,-24.1563 z m 39.125,0 24.1563,0 0,24.1563 -24.1563,0 0,-24.1563 z m 39.125,0 24.125,0 0,24.1563 -24.125,0 0,-24.1563 z m 39.0938,0 24.1562,0 0,24.1563 -24.1562,0 0,-24.1563 z m 39.125,0 24.1562,0 0,24.1563 -24.1562,0 0,-24.1563 z m 39.125,0 24.125,0 0,24.1563 -24.125,0 0,-24.1563 z m 39.0937,0 24.1563,0 0,24.1563 -24.1563,0 0,-24.1563 z"
       style="fill:#000000;fill-opacity:1"
       inkscape:connector-curvature="0" />
  </g>
</svg>
